<svg width="24" height="24" viewBox="0 0 24 24" fill="none" xmlns="http://www.w3.org/2000/svg">
<path d="M14 11.8C14.1833 11.8 14.354 11.729 14.512 11.587C14.6707 11.4457 14.7667 11.2667 14.8 11.05C14.8333 10.8333 14.9127 10.6417 15.038 10.475C15.1627 10.3083 15.35 10.1 15.6 9.85C16.1 9.35 16.4333 8.94567 16.6 8.637C16.7667 8.329 16.85 7.96667 16.85 7.55C16.85 6.8 16.5873 6.18767 16.062 5.713C15.5373 5.23767 14.85 5 14 5C13.45 5 12.9543 5.129 12.513 5.387C12.071 5.64567 11.7167 6 11.45 6.45C11.35 6.61667 11.3377 6.79167 11.413 6.975C11.4877 7.15833 11.625 7.29167 11.825 7.375C11.9917 7.44167 12.1667 7.44167 12.35 7.375C12.5333 7.30833 12.6917 7.18333 12.825 7C12.975 6.8 13.15 6.65 13.35 6.55C13.55 6.45 13.7667 6.4 14 6.4C14.4 6.4 14.725 6.51233 14.975 6.737C15.225 6.96233 15.35 7.26667 15.35 7.65C15.35 7.88333 15.2833 8.104 15.15 8.312C15.0167 8.52067 14.7833 8.78333 14.45 9.1C14 9.48333 13.7 9.79167 13.55 10.025C13.4 10.2583 13.3083 10.6 13.275 11.05C13.2583 11.25 13.321 11.425 13.463 11.575C13.6043 11.725 13.7833 11.8 14 11.8ZM14 15C14.2833 15 14.5293 14.896 14.738 14.688C14.946 14.4793 15.05 14.2333 15.05 13.95C15.05 13.6667 14.946 13.4207 14.738 13.212C14.5293 13.004 14.2833 12.9 14 12.9C13.7167 12.9 13.471 13.004 13.263 13.212C13.0543 13.4207 12.95 13.6667 12.95 13.95C12.95 14.2333 13.0543 14.4793 13.263 14.688C13.471 14.896 13.7167 15 14 15ZM8 18C7.45 18 6.97933 17.8043 6.588 17.413C6.196 17.021 6 16.55 6 16V4C6 3.45 6.196 2.979 6.588 2.587C6.97933 2.19567 7.45 2 8 2H20C20.55 2 21.021 2.19567 21.413 2.587C21.8043 2.979 22 3.45 22 4V16C22 16.55 21.8043 17.021 21.413 17.413C21.021 17.8043 20.55 18 20 18H8ZM8 16H20V4H8V16ZM4 22C3.45 22 2.97933 21.8043 2.588 21.413C2.196 21.021 2 20.55 2 20V7C2 6.71667 2.096 6.479 2.288 6.287C2.47933 6.09567 2.71667 6 3 6C3.28333 6 3.521 6.09567 3.713 6.287C3.90433 6.479 4 6.71667 4 7V20H17C17.2833 20 17.5207 20.096 17.712 20.288C17.904 20.4793 18 20.7167 18 21C18 21.2833 17.904 21.5207 17.712 21.712C17.5207 21.904 17.2833 22 17 22H4Z" fill="white"/>
</svg>
