<svg fill="none" height="20" viewBox="0 0 20 20" width="20" xmlns="http://www.w3.org/2000/svg">
    <path
        d="M9.99913 6.66668C9.07676 6.66668 8.19216 7.01795 7.53994 7.64322C6.88772 8.26849 6.52131 9.11654 6.52131 10.0008C6.52131 10.8851 6.88772 11.7331 7.53994 12.3584C8.19216 12.9836 9.07676 13.3349 9.99913 13.3349C10.9215 13.3349 11.8061 12.9836 12.4583 12.3584C13.1105 11.7331 13.4769 10.8851 13.4769 10.0008C13.4769 9.11654 13.1105 8.26849 12.4583 7.64322C11.8061 7.01795 10.9215 6.66668 9.99913 6.66668ZM8.26022 10.0008C8.26022 9.55867 8.44343 9.13465 8.76954 8.82201C9.09565 8.50938 9.53794 8.33374 9.99913 8.33374C10.4603 8.33374 10.9026 8.50938 11.2287 8.82201C11.5548 9.13465 11.738 9.55867 11.738 10.0008C11.738 10.4429 11.5548 10.867 11.2287 11.1796C10.9026 11.4922 10.4603 11.6679 9.99913 11.6679C9.53794 11.6679 9.09565 11.4922 8.76954 11.1796C8.44343 10.867 8.26022 10.4429 8.26022 10.0008ZM14.5516 3.99605C14.2309 4.05253 13.8999 3.98473 13.6313 3.80752C13.3626 3.63031 13.1783 3.35817 13.1187 3.05083L12.6666 0.690269C12.6444 0.575313 12.5872 0.469261 12.502 0.385564C12.4169 0.301868 12.3077 0.244298 12.1884 0.220158C10.7444 -0.073386 9.25216 -0.073386 7.8081 0.220158C7.68879 0.244298 7.57964 0.301868 7.4945 0.385564C7.40937 0.469261 7.35208 0.575313 7.3299 0.690269L6.87953 3.05083C6.84664 3.21895 6.77613 3.37825 6.67286 3.51774C6.56959 3.65723 6.436 3.7736 6.28131 3.85885C6.12661 3.94409 5.95448 3.99617 5.77677 4.01151C5.59906 4.02685 5.42 4.00508 5.25191 3.9477L2.88873 3.14085C2.77406 3.10148 2.6498 3.0955 2.5316 3.12369C2.4134 3.15187 2.30654 3.21294 2.22447 3.29922C1.23402 4.34439 0.486064 5.57906 0.0299615 6.92174C-0.00767151 7.03277 -0.00990337 7.15204 0.0235511 7.26429C0.0570056 7.37654 0.124626 7.47668 0.217764 7.55189L2.13404 9.10392C2.2702 9.21409 2.37964 9.35142 2.4547 9.50633C2.52977 9.66124 2.56866 9.82999 2.56866 10.0008C2.56866 10.1716 2.52977 10.3404 2.4547 10.4953C2.37964 10.6502 2.2702 10.7875 2.13404 10.8977L0.217764 12.4497C0.124626 12.5249 0.0570056 12.6251 0.0235511 12.7373C-0.00990337 12.8496 -0.00767151 12.9688 0.0299615 13.0799C0.486385 14.4228 1.23496 15.6575 2.2262 16.7024C2.30828 16.7887 2.41514 16.8497 2.53334 16.8779C2.65154 16.9061 2.7758 16.9001 2.89047 16.8608L5.25538 16.0539C5.42345 15.9959 5.60266 15.9737 5.78058 15.9888C5.9585 16.0038 6.13087 16.0559 6.28572 16.1412C6.44058 16.2265 6.57421 16.3431 6.67735 16.4829C6.78049 16.6227 6.85067 16.7824 6.883 16.9508L7.33164 19.3113C7.37686 19.5447 7.5664 19.7314 7.80984 19.7798C9.25447 20.0734 10.7473 20.0734 12.1919 19.7798C12.3108 19.7557 12.4195 19.6983 12.5043 19.6149C12.5891 19.5315 12.6462 19.4259 12.6684 19.3113L13.1205 16.9508C13.1534 16.7826 13.2239 16.6234 13.3271 16.4839C13.4304 16.3444 13.564 16.228 13.7187 16.1428C13.8734 16.0575 14.0455 16.0054 14.2232 15.9901C14.4009 15.9747 14.58 15.9965 14.7481 16.0539L17.1113 16.8608C17.346 16.9408 17.6086 16.8774 17.7755 16.7024C18.766 15.6572 19.5139 14.4225 19.97 13.0799C20.0077 12.9688 20.0099 12.8496 19.9764 12.7373C19.943 12.6251 19.8754 12.5249 19.7822 12.4497L17.866 10.8977C17.7295 10.7877 17.6199 10.6504 17.5446 10.4955C17.4694 10.3405 17.4304 10.1717 17.4304 10.0008C17.4304 9.8299 17.4694 9.66107 17.5446 9.50614C17.6199 9.35121 17.7295 9.21393 17.866 9.10392L19.7822 7.55189C19.8754 7.47668 19.943 7.37654 19.9764 7.26429C20.0099 7.15204 20.0077 7.03277 19.97 6.92174C19.5131 5.57867 18.764 4.34393 17.7721 3.29922C17.69 3.21294 17.5831 3.15187 17.4649 3.12369C17.3467 3.0955 17.2225 3.10148 17.1078 3.14085L14.7429 3.9477C14.6801 3.96935 14.6155 3.98608 14.5499 3.99772L14.5516 3.99605ZM3.04001 4.96294L4.66937 5.51808C5.0748 5.65645 5.50672 5.7088 5.93531 5.67153C6.3639 5.63425 6.77894 5.50823 7.15177 5.30218C7.52461 5.09612 7.84634 4.81494 8.09476 4.47805C8.34318 4.14116 8.51236 3.75659 8.59061 3.3509L8.8984 1.73385C9.62881 1.64642 10.3677 1.64642 11.0981 1.73385L11.4076 3.3509C11.4854 3.75686 11.6542 4.14178 11.9025 4.47898C12.1508 4.81618 12.4726 5.0976 12.8455 5.30375C13.2185 5.50989 13.6338 5.63583 14.0626 5.67284C14.4914 5.70985 14.9235 5.65704 15.3289 5.51808L16.9548 4.96128C17.3982 5.51808 17.7668 6.12489 18.0503 6.76837L16.7391 7.83029C16.4097 8.09695 16.1449 8.42932 15.9633 8.8042C15.7817 9.17909 15.6876 9.58745 15.6876 10.0008C15.6876 10.4141 15.7817 10.8225 15.9633 11.1974C16.1449 11.5723 16.4097 11.9047 16.7391 12.1713L18.052 13.2332C17.7676 13.8774 17.3995 14.4845 16.9565 15.0403L15.3271 14.4835C14.9217 14.3452 14.4898 14.2928 14.0612 14.3301C13.6326 14.3673 13.2176 14.4934 12.8447 14.6994C12.4719 14.9055 12.1502 15.1867 11.9018 15.5236C11.6533 15.8604 11.4842 16.245 11.4059 16.6507L11.0964 18.2678C10.366 18.3553 9.62706 18.3553 8.89666 18.2678L8.58888 16.6507C8.51117 16.2447 8.34232 15.8598 8.09404 15.5226C7.84576 15.1854 7.52397 14.904 7.15098 14.6979C6.77799 14.4917 6.3627 14.3658 5.9339 14.3288C5.5051 14.2918 5.07303 14.3446 4.66763 14.4835L3.04349 15.0403C2.60048 14.4845 2.2324 13.8774 1.94798 13.2332L3.25912 12.1696C3.58826 11.903 3.85277 11.5707 4.03421 11.196C4.21565 10.8213 4.30964 10.4131 4.30964 9.99997C4.30964 9.58684 4.21565 9.17868 4.03421 8.80395C3.85277 8.42923 3.58826 8.09695 3.25912 7.83029L1.94624 6.76837C2.23185 6.1248 2.59985 5.51777 3.04175 4.96128L3.04001 4.96294Z"
        fill="white" />
</svg>
