<svg fill="none" height="24" viewBox="0 0 24 24" width="24" xmlns="http://www.w3.org/2000/svg">
    <path
        d="M5.175 6C4.89167 6 4.654 5.90433 4.462 5.713C4.27067 5.521 4.175 5.28333 4.175 5C4.175 4.71667 4.27067 4.479 4.462 4.287C4.654 4.09567 4.89167 4 5.175 4H19.175C19.4583 4 19.6957 4.09567 19.887 4.287C20.079 4.479 20.175 4.71667 20.175 5C20.175 5.28333 20.079 5.521 19.887 5.713C19.6957 5.90433 19.4583 6 19.175 6H5.175ZM5.175 20C4.89167 20 4.654 19.904 4.462 19.712C4.27067 19.5207 4.175 19.2833 4.175 19V14H4C3.68333 14 3.425 13.879 3.225 13.637C3.025 13.3957 2.95833 13.1167 3.025 12.8L4.025 7.8C4.075 7.56667 4.19167 7.375 4.375 7.225C4.55833 7.075 4.76667 7 5 7H19.35C19.5833 7 19.7917 7.075 19.975 7.225C20.1583 7.375 20.275 7.56667 20.325 7.8L21.325 12.8C21.3917 13.1167 21.325 13.3957 21.125 13.637C20.925 13.879 20.6667 14 20.35 14H20.175V19C20.175 19.2833 20.079 19.5207 19.887 19.712C19.6957 19.904 19.4583 20 19.175 20C18.8917 20 18.6543 19.904 18.463 19.712C18.271 19.5207 18.175 19.2833 18.175 19V14H14.175V19C14.175 19.2833 14.0793 19.5207 13.888 19.712C13.696 19.904 13.4583 20 13.175 20H5.175ZM6.175 18H12.175V14H6.175V18ZM5.225 12H19.125L18.525 9H5.825L5.225 12Z"
        fill="#25C7FA" />
</svg>
