<svg width="16" height="16" viewBox="0 0 16 16" fill="none" xmlns="http://www.w3.org/2000/svg">
<path d="M5.05643 12.9639L7.99982 11.1049L10.9432 12.9883L10.1723 9.46608L12.7653 7.11791L9.35472 6.79992L7.99982 3.47334L6.64493 6.77546L3.23432 7.09345L5.82732 9.46608L5.05643 12.9639ZM7.99982 13.4042L4.12202 15.8502C3.95071 15.9643 3.77161 16.0132 3.58473 15.9969C3.39785 15.9806 3.23432 15.9154 3.09416 15.8013C2.954 15.6871 2.84499 15.5446 2.76712 15.3737C2.68925 15.2022 2.67368 15.0104 2.7204 14.7984L3.74825 10.1754L0.314289 7.06899C0.158554 6.92222 0.061375 6.75492 0.0227527 6.56706C-0.0164926 6.37986 -0.00496828 6.19657 0.0573258 6.0172C0.11962 5.83782 0.213061 5.69106 0.337649 5.57692C0.462237 5.46277 0.633546 5.38939 0.851575 5.35677L5.38347 4.94095L7.13549 0.587044C7.21336 0.391363 7.33421 0.244602 7.49804 0.146761C7.66126 0.0489204 7.82851 0 7.99982 0C8.17113 0 8.3387 0.0489204 8.50254 0.146761C8.66575 0.244602 8.78629 0.391363 8.86415 0.587044L10.6162 4.94095L15.1481 5.35677C15.3661 5.38939 15.5374 5.46277 15.662 5.57692C15.7866 5.69106 15.88 5.83782 15.9423 6.0172C16.0046 6.19657 16.0165 6.37986 15.9778 6.56706C15.9386 6.75492 15.8411 6.92222 15.6854 7.06899L12.2514 10.1754L13.2792 14.7984C13.326 15.0104 13.3104 15.2022 13.2325 15.3737C13.1547 15.5446 13.0456 15.6871 12.9055 15.8013C12.7653 15.9154 12.6018 15.9806 12.4149 15.9969C12.228 16.0132 12.0489 15.9643 11.8776 15.8502L7.99982 13.4042Z" fill="#F5D630"/>
</svg>
